
  <svg
    width="1000"
    height="1000"
    viewBox="0 0 1000 1000"
    xmlns="http://www.w3.org/2000/svg"
  >
    <defs>
      
      
      
      
      
      
      
      <clipPath id="shape">
        <path fill="currentColor" d="M871,629Q855,758,717.5,752Q580,746,507.5,723.5Q435,701,335.5,696.5Q236,692,210.5,596Q185,500,254,436Q323,372,355,261.5Q387,151,480,213Q573,275,678.5,284.5Q784,294,835.5,397Q887,500,871,629Z"></path>
      </clipPath>
    </defs>
  
    

    <g  clip-path="url(#shape)">
      <path fill="#acffb9" d="M871,629Q855,758,717.5,752Q580,746,507.5,723.5Q435,701,335.5,696.5Q236,692,210.5,596Q185,500,254,436Q323,372,355,261.5Q387,151,480,213Q573,275,678.5,284.5Q784,294,835.5,397Q887,500,871,629Z" />
    </g>

    
  
  </svg>