<svg id="Layer_1" data-name="Layer 1" xmlns="http://www.w3.org/2000/svg" xmlns:xlink="http://www.w3.org/1999/xlink" viewBox="0 0 434.31 435.69" width="406" height="306" class="illustration styles_illustrationTablet__1DWOa"><defs><linearGradient id="linear-gradient" x1="253.37" y1="1.5" x2="152.01" y2="242.51" gradientUnits="userSpaceOnUse"><stop offset="0" stop-opacity="0"></stop><stop offset="0.88" stop-opacity="0.8"></stop><stop offset="0.97"></stop></linearGradient><linearGradient id="linear-gradient-2" x1="250.72" y1="98.33" x2="248.95" y2="99.85" gradientUnits="userSpaceOnUse"><stop offset="0" stop-opacity="0"></stop><stop offset="0.68" stop-opacity="0.55"></stop><stop offset="0.88" stop-opacity="0.8"></stop><stop offset="0.97"></stop></linearGradient><linearGradient id="linear-gradient-3" x1="211.61" y1="338" x2="226.25" y2="591.4" gradientUnits="userSpaceOnUse"><stop offset="0" stop-opacity="0"></stop><stop offset="0.8" stop-opacity="0.63"></stop><stop offset="0.88" stop-opacity="0.8"></stop><stop offset="0.97"></stop></linearGradient><linearGradient id="linear-gradient-4" x1="235.39" y1="343.19" x2="125.02" y2="611.23" gradientUnits="userSpaceOnUse"><stop offset="0" stop-color="#a45326"></stop><stop offset="0.42" stop-color="#efd4d1"></stop><stop offset="1" stop-color="#f2eac9"></stop></linearGradient><linearGradient id="linear-gradient-5" x1="208.25" y1="441.42" x2="208.25" y2="355.26" xlink:href="#linear-gradient"></linearGradient><linearGradient id="linear-gradient-6" x1="219.28" y1="333.58" x2="142.13" y2="601.06" xlink:href="#linear-gradient-4"></linearGradient><linearGradient id="linear-gradient-7" x1="207.64" y1="350.51" x2="130.49" y2="617.99" xlink:href="#linear-gradient-4"></linearGradient><linearGradient id="linear-gradient-8" x1="161.83" y1="362.96" x2="234.73" y2="362.96" xlink:href="#linear-gradient"></linearGradient><linearGradient id="linear-gradient-9" x1="75.66" y1="365.25" x2="201.97" y2="365.25" xlink:href="#linear-gradient-4"></linearGradient><linearGradient id="linear-gradient-10" x1="154.63" y1="333.76" x2="85.93" y2="405.46" xlink:href="#linear-gradient-4"></linearGradient><linearGradient id="linear-gradient-11" x1="130.71" y1="341.48" x2="128.46" y2="415.81" xlink:href="#linear-gradient-4"></linearGradient><linearGradient id="linear-gradient-12" x1="132.11" y1="341.52" x2="129.86" y2="415.85" xlink:href="#linear-gradient-4"></linearGradient><linearGradient id="linear-gradient-13" x1="142.87" y1="375.08" x2="170.47" y2="307.88" xlink:href="#linear-gradient"></linearGradient><linearGradient id="linear-gradient-14" x1="327.35" y1="335.67" x2="146.02" y2="416.01" xlink:href="#linear-gradient-4"></linearGradient><linearGradient id="linear-gradient-15" x1="212.49" y1="346.18" x2="361.01" y2="346.18" xlink:href="#linear-gradient-4"></linearGradient><linearGradient id="linear-gradient-16" x1="286.86" y1="376.48" x2="245.28" y2="288.12" xlink:href="#linear-gradient"></linearGradient><linearGradient id="linear-gradient-17" x1="284.63" y1="120.26" x2="245.96" y2="153.3" xlink:href="#linear-gradient-4"></linearGradient><linearGradient id="linear-gradient-18" x1="270.97" y1="123.6" x2="277.89" y2="123.6" xlink:href="#linear-gradient-2"></linearGradient><linearGradient id="linear-gradient-19" x1="271.19" y1="132.42" x2="256.17" y2="141.43" xlink:href="#linear-gradient-2"></linearGradient><linearGradient id="linear-gradient-20" x1="247.56" y1="112" x2="239.63" y2="112.42" gradientUnits="userSpaceOnUse"><stop offset="0" stop-color="#ecc4d7"></stop><stop offset="0.42" stop-color="#efd4d1"></stop><stop offset="1" stop-color="#f2eac9"></stop></linearGradient><linearGradient id="linear-gradient-21" x1="280.59" y1="319.18" x2="556.07" y2="319.18" xlink:href="#linear-gradient-4"></linearGradient><linearGradient id="linear-gradient-22" x1="215.46" y1="253.31" x2="214.89" y2="342.84" gradientUnits="userSpaceOnUse"><stop offset="0" stop-opacity="0"></stop><stop offset="0.91" stop-opacity="0.8"></stop><stop offset="1"></stop></linearGradient><linearGradient id="linear-gradient-23" x1="256.26" y1="317.6" x2="192.63" y2="189.21" gradientUnits="userSpaceOnUse"><stop offset="0" stop-opacity="0"></stop><stop offset="1"></stop></linearGradient><linearGradient id="linear-gradient-24" x1="247.01" y1="309.88" x2="249.27" y2="243.06" xlink:href="#linear-gradient"></linearGradient><linearGradient id="linear-gradient-25" x1="222.02" y1="301.22" x2="221.46" y2="226.54" xlink:href="#linear-gradient"></linearGradient><linearGradient id="linear-gradient-26" x1="127.21" y1="273.31" x2="312.39" y2="273.31" xlink:href="#linear-gradient"></linearGradient><linearGradient id="linear-gradient-27" x1="103.12" y1="280.8" x2="109.31" y2="471.13" xlink:href="#linear-gradient-22"></linearGradient><linearGradient id="linear-gradient-28" x1="135.75" y1="279.73" x2="141.95" y2="470.07" xlink:href="#linear-gradient-22"></linearGradient><linearGradient id="linear-gradient-29" x1="326.15" y1="273.54" x2="332.34" y2="463.87" xlink:href="#linear-gradient-22"></linearGradient><linearGradient id="linear-gradient-30" x1="204.51" y1="277.5" x2="210.71" y2="467.83" xlink:href="#linear-gradient-22"></linearGradient><linearGradient id="linear-gradient-31" x1="178.54" y1="278.34" x2="184.73" y2="468.68" xlink:href="#linear-gradient-22"></linearGradient><linearGradient id="linear-gradient-32" x1="283.79" y1="274.92" x2="289.99" y2="465.25" xlink:href="#linear-gradient-22"></linearGradient><linearGradient id="linear-gradient-33" x1="224.13" y1="138.93" x2="215.69" y2="335.74" xlink:href="#linear-gradient-4"></linearGradient><linearGradient id="linear-gradient-34" x1="161.14" y1="178.58" x2="196.67" y2="178.58" xlink:href="#linear-gradient-22"></linearGradient><linearGradient id="linear-gradient-35" x1="198.4" y1="235.95" x2="340.59" y2="108.97" xlink:href="#linear-gradient-22"></linearGradient><linearGradient id="linear-gradient-36" x1="215.62" y1="116.87" x2="236.32" y2="116.58" xlink:href="#linear-gradient"></linearGradient><linearGradient id="linear-gradient-37" x1="265.09" y1="146.25" x2="253.23" y2="234.91" xlink:href="#linear-gradient"></linearGradient><linearGradient id="linear-gradient-38" x1="247.86" y1="145.32" x2="264.19" y2="144.38" xlink:href="#linear-gradient-2"></linearGradient><linearGradient id="linear-gradient-39" x1="242.31" y1="114.53" x2="252.53" y2="114.53" xlink:href="#linear-gradient-2"></linearGradient><linearGradient id="linear-gradient-40" x1="261.18" y1="137.15" x2="191.41" y2="159.16" xlink:href="#linear-gradient-2"></linearGradient><linearGradient id="linear-gradient-41" x1="233.75" y1="118.65" x2="233.81" y2="118.75" xlink:href="#linear-gradient"></linearGradient><linearGradient id="linear-gradient-42" x1="238.1" y1="146.16" x2="223.27" y2="146.16" xlink:href="#linear-gradient-2"></linearGradient><linearGradient id="linear-gradient-43" x1="257.67" y1="129.69" x2="231.09" y2="155.14" xlink:href="#linear-gradient-2"></linearGradient><linearGradient id="linear-gradient-44" x1="270.14" y1="171" x2="247.61" y2="232.1" xlink:href="#linear-gradient"></linearGradient><linearGradient id="linear-gradient-45" x1="302.92" y1="172.74" x2="312.21" y2="172.74" xlink:href="#linear-gradient-20"></linearGradient><linearGradient id="linear-gradient-46" x1="272.26" y1="127.76" x2="286.56" y2="127.76" xlink:href="#linear-gradient-20"></linearGradient><linearGradient id="linear-gradient-47" x1="249.05" y1="96.15" x2="247.37" y2="110.62" gradientTransform="translate(-17.66 64.82) rotate(-14.25)" xlink:href="#linear-gradient-20"></linearGradient><linearGradient id="linear-gradient-48" x1="301.47" y1="185.03" x2="305.39" y2="185.03" xlink:href="#linear-gradient-20"></linearGradient><linearGradient id="linear-gradient-49" x1="220.56" y1="97.58" x2="221.69" y2="59.66" xlink:href="#linear-gradient-2"></linearGradient><linearGradient id="linear-gradient-50" x1="215.77" y1="210.09" x2="236.04" y2="359.59" xlink:href="#linear-gradient"></linearGradient><linearGradient id="linear-gradient-51" x1="241.55" y1="115.65" x2="237.47" y2="124.52" xlink:href="#linear-gradient-2"></linearGradient><linearGradient id="linear-gradient-52" x1="183.27" y1="145.53" x2="169.38" y2="150.97" gradientUnits="userSpaceOnUse"><stop offset="0" stop-color="#fff" stop-opacity="0"></stop><stop offset="0.84" stop-color="#fff" stop-opacity="0.84"></stop><stop offset="0.97" stop-color="#fff"></stop></linearGradient><linearGradient id="linear-gradient-53" x1="185.06" y1="130.76" x2="190.5" y2="154.6" xlink:href="#linear-gradient-52"></linearGradient><linearGradient id="linear-gradient-54" x1="201.71" y1="14.1" x2="199.18" y2="50.14" xlink:href="#linear-gradient-52"></linearGradient><linearGradient id="linear-gradient-55" x1="215.37" y1="15.06" x2="212.84" y2="51.1" xlink:href="#linear-gradient-52"></linearGradient><linearGradient id="linear-gradient-56" x1="231.24" y1="16.18" x2="228.71" y2="52.22" xlink:href="#linear-gradient-52"></linearGradient><linearGradient id="linear-gradient-57" x1="247.18" y1="17.3" x2="244.65" y2="53.34" xlink:href="#linear-gradient-52"></linearGradient><linearGradient id="linear-gradient-58" x1="263.21" y1="18.43" x2="260.67" y2="54.47" xlink:href="#linear-gradient-52"></linearGradient><linearGradient id="linear-gradient-59" x1="203.75" y1="14.25" x2="201.21" y2="50.29" xlink:href="#linear-gradient-52"></linearGradient><linearGradient id="linear-gradient-60" x1="219.57" y1="15.36" x2="217.04" y2="51.4" xlink:href="#linear-gradient-52"></linearGradient><linearGradient id="linear-gradient-61" x1="234.15" y1="16.39" x2="231.62" y2="52.43" xlink:href="#linear-gradient-52"></linearGradient><linearGradient id="linear-gradient-62" x1="248.07" y1="17.36" x2="245.54" y2="53.4" xlink:href="#linear-gradient-52"></linearGradient><linearGradient id="linear-gradient-63" x1="263.78" y1="18.47" x2="261.25" y2="54.51" xlink:href="#linear-gradient-52"></linearGradient><linearGradient id="linear-gradient-64" x1="248.12" y1="98.75" x2="245.61" y2="97.55" xlink:href="#linear-gradient-2"></linearGradient><linearGradient id="linear-gradient-65" x1="243.14" y1="104.2" x2="236.29" y2="107.46" xlink:href="#linear-gradient-20"></linearGradient></defs><title>61. Lunch break</title><path d="M163,31.8l-2.42,59.1a11.33,11.33,0,0,0,11.32,11.79H272.19a11.32,11.32,0,0,0,11.29-10.48l4.13-55.28a11.33,11.33,0,0,0-10.87-12.16L174.69,21A11.33,11.33,0,0,0,163,31.8Z" transform="translate(0 -20.94)" fill="#6bff81"></path><path d="M167.73,31.8,165.3,90.9a11.33,11.33,0,0,0,11.32,11.79H277a11.32,11.32,0,0,0,11.29-10.48l4.13-55.28a11.33,11.33,0,0,0-10.87-12.16L179.47,21A11.32,11.32,0,0,0,167.73,31.8Z" transform="translate(0 -20.94)" fill="#6bff81"></path><path d="M167.73,31.8,165.3,90.9a11.33,11.33,0,0,0,11.32,11.79H277a11.32,11.32,0,0,0,11.29-10.48l4.13-55.28a11.33,11.33,0,0,0-10.87-12.16L179.47,21A11.32,11.32,0,0,0,167.73,31.8Z" transform="translate(0 -20.94)" fill="url(#linear-gradient)"></path><path d="M132.91,88.46c-10.32,11-18.31,24-28.67,35C88,140.67,66.65,152.05,47.39,165.84S9.86,197.52,4.74,220.64c-6.77,30.53,10.86,61,12.37,92.27.56,11.74-1.17,23.54-.07,35.24,3.39,36.05,33.68,65,67.55,77.81s71.06,12.58,107.27,12.19l53.75-.57c29.17-.31,58.94-.72,86.48-10.31s53-30.16,60.54-58.32c4.55-16.94,2.44-35.39,8.82-51.72,4.75-12.15,13.78-22.06,20.44-33.28,21.05-35.49,14.76-84.94-14.49-114-11.91-11.84-27.92-22-31-38.48-1.68-8.84.81-18.07-.84-26.92C372.56,88.61,357,78,341.39,73.73s-32.11-3.86-47.87-7.43C274.44,62,257.09,52,238.27,46.65c-21.42-6.1-36.75-2.59-54.82,8.43C166,65.73,147.46,72.94,132.91,88.46Z" transform="translate(0 -20.94)" fill="#6bff81" opacity="0.19" style="isolation: isolate;"></path><polygon points="247.53 96.27 249.57 96.86 251.35 101.41 247.53 98.47 247.53 96.27" fill="#6bff81"></polygon><polygon points="248.36 99.01 249.57 96.86 250.91 100.63 248.36 99.01" fill="url(#linear-gradient-2)"></polygon><path d="M26.87,414.61c-6.54.94-13.31,2-18.85,5.58S-1.47,430.74.52,437c2.11,6.69,9.88,10,16.9,10s13.82-2.25,20.81-2.87c13.07-1.16,25.82,3.6,38.59,6.61,21.3,5,43.41,5.25,65.3,5.44,79.14.7,158.57,1.38,237.09-8.56,15.67-2,31.53-4.46,45.87-11.11,5.14-2.38,10.85-7.78,8.07-12.72a9.21,9.21,0,0,0-4.16-3.45c-10.55-5.18-23.06-2.9-34.75-4.15s-24.95-9.57-23.34-21.21c-18.94-9.52-41.43-1.34-61.73,4.74-46.79,14-96.1,15.9-144.58,13.31-24.07-1.28-48-4.06-71.95-6.32C71.22,404.78,48.31,411.51,26.87,414.61Z" transform="translate(0 -20.94)" fill="url(#linear-gradient-3)"></path><path d="M89,372.11s-19.31,1.47-13.66,25S100,434,143.08,438.87,293.74,441,338.9,422.23c0,0,20.46-9.55,16.69-36.93C349.46,340.9,116.23,347.33,89,372.11Z" transform="translate(0 -20.94)" fill="url(#linear-gradient-4)"></path><path d="M78.2,381s43.41,52.43,222.72,23.88c0,0,46.19-13.29,35.86-28.35S119.08,352.14,78.2,381Z" transform="translate(0 -20.94)" fill="url(#linear-gradient-5)"></path><path d="M137.67,384.66l3.53,13.89s76.9,14.79,123.51-1.79l7.34-14.26S218,367.63,207.91,361.92l-1.41-9.22L202,354.91S188.94,375.16,137.67,384.66Z" transform="translate(0 -20.94)" fill="url(#linear-gradient-6)"></path><path d="M134.78,371.24l3.54,13.89s76.9,14.8,123.51-1.79l7.33-14.26S215.11,354.21,205,348.51l-1.42-9.23-4.52,2.22S186.05,361.75,134.78,371.24Z" transform="translate(0 -20.94)" fill="url(#linear-gradient-7)"></path><path d="M167.41,378.39a95.87,95.87,0,0,0,32.06-10.79,80,80,0,0,0,35.26,7.17l-12.88-15.84c-2.78-3.41-5.59-6.86-9.14-9.46-2-1.45-4.36-2.65-6.78-2.27a11.26,11.26,0,0,0-4,1.73q-12,7.24-23.4,15.45-5.74,4.15-11.33,8.54c-.87.68-5.44,3.44-5.41,4.48C161.9,379.59,166.11,378.58,167.41,378.39Z" transform="translate(0 -20.94)" fill="url(#linear-gradient-8)"></path><path d="M75.66,363.9,78.2,381s10.84,10.14,48.39,5.29S191,370.48,202,354.91l-91.21-12.05S75.86,351.71,75.66,363.9Z" transform="translate(0 -20.94)" fill="url(#linear-gradient-9)"></path><path d="M82.68,352.88c-3.05,1.7-6.33,3.8-7.18,7.18-.73,2.91.67,6.05,2.87,8.08a19.44,19.44,0,0,0,8,4c11.66,3.37,24.05,2.83,36.17,2.27,11.73-.55,23.59-1.11,34.92-4.23,8.14-2.23,15.86-5.75,23.55-9.25,3.26-1.49,6.73-3.15,8.52-6.25l-49.74-4a60.78,60.78,0,0,1-12.39-1.84c-3.82-1.11-7.38-3-11.15-4.25-5.1-1.75-11.82-3.49-16.8-.76C93.89,346.89,88.23,349.8,82.68,352.88Z" transform="translate(0 -20.94)" fill="url(#linear-gradient-10)"></path><path d="M105.14,342.85s-26.56,10.57-21,16.91,53.68,13.18,93-6.51l-6.61-1.14s-27.06,16.35-72,9.81c0,0-18.72-2-8.54-8.67s26.22-8.64,26.22-8.64S111,340.25,105.14,342.85Z" transform="translate(0 -20.94)" fill="url(#linear-gradient-11)"></path><path d="M154.26,353.25s-27.71,11-43.12,5.37S122.33,347,122.33,347l3.5.92s-13.33,1.59-15.07,5.67,14.55,5.1,22.62,2.92,18.31-5.5,18.31-5.5l5.47,1Z" transform="translate(0 -20.94)" fill="url(#linear-gradient-12)"></path><path d="M183.93,359.09c4.57.23,9.61.32,13.14-2.58a2.42,2.42,0,0,0,1-1.61c.05-1.09-1.14-1.77-2.14-2.19-17-7.11-34.48-14.33-52.91-15.3-6.23-.32-39.11-3.7-33.55,9.74,2,4.9,12.38,8.78,16.94,9,9.2.44,18.39.94,27.58,1.41C164,358.07,174,359.09,183.93,359.09Z" transform="translate(0 -20.94)" fill="url(#linear-gradient-13)"></path><path d="M206.5,352.7l1.41,9.22S256,387.6,295.64,382.67s60.41-17.17,62-24.05,3.3-21.27,3.3-21.27l-21.73-13.66-126.17,20.9Z" transform="translate(0 -20.94)" fill="url(#linear-gradient-14)"></path><path d="M212.49,350.18s49.52,21.2,89.41,16.35,60-21.59,59.08-29.18-18.39-12.23-18.39-12.23S213.66,339,213.08,344.59Z" transform="translate(0 -20.94)" fill="url(#linear-gradient-15)"></path><path d="M228.24,354.91c19.56-3.2,54.35-3.7,73.68-8.12,11.06-2.53,21.6-6.94,32-11.45a22.21,22.21,0,0,0,6.4-3.67,7.65,7.65,0,0,0,2.7-6.58,2.35,2.35,0,0,0-.89-1.66,2.92,2.92,0,0,0-1.6-.34,502.63,502.63,0,0,0-92.09,6.42c-9.22,1.51-51.17,12.43-52.31,24.63-.42,4.43,14.79,8.93,18.57,11.11C221.16,368.94,221.82,356,228.24,354.91Z" transform="translate(0 -20.94)" opacity="0.51" fill="url(#linear-gradient-16)"></path><path d="M276.05,119a2.34,2.34,0,0,0-1.22.51,1.13,1.13,0,0,0-.34,1.21c-.42-.2-.87.25-1.05.68s-.32,1-.76,1.13a4.68,4.68,0,0,0-.53.17c-.38.23-.31.8-.48,1.21-.27.64-1.11.84-1.48,1.43a1.7,1.7,0,0,0-.19,1,4.57,4.57,0,0,0,2.29,3.39,13.61,13.61,0,0,0,4,1.44l3.64.89a1.66,1.66,0,0,0,2.07-.57c1.41-1.46,2.88-3.14,2.92-5.16a5.63,5.63,0,0,0-1.64-3.82C281.5,120.67,278.77,118.58,276.05,119Z" transform="translate(0 -20.94)" fill="url(#linear-gradient-17)"></path><path d="M271.82,125.31c.14.19.23.42.35.62a.89.89,0,0,0,.54.45,1.2,1.2,0,0,0,.56-.06,6.14,6.14,0,0,0,2.54-1.16.27.27,0,0,0,.07-.08.29.29,0,0,0-.05-.2,1.32,1.32,0,0,1,.3-1.53,2.79,2.79,0,0,1,.62-.38l1.05-.5s.06,0,.07-.06a.12.12,0,0,0,0-.1.68.68,0,0,0-.45-.41,2.65,2.65,0,0,0-.63-.07,8.42,8.42,0,0,1-1.23-.14.83.83,0,0,1-.52-.23,2.08,2.08,0,0,1-.19-.29.79.79,0,0,0-.38-.32.31.31,0,0,0-.28,0,.26.26,0,0,0-.08.29.6.6,0,0,0,.16.26l1.57,1.83a.42.42,0,0,1,.11.22c0,.17-.2.25-.37.27a1.72,1.72,0,0,1-.75,0c-.54-.19-.82-.79-1.33-1a.63.63,0,0,0-.4-.06c-.14,0-.26.16-.41.18s-.37,0-.43.1a.23.23,0,0,0,0,.21,18.82,18.82,0,0,0,1.24,1.44.6.6,0,0,1,.09.22.34.34,0,0,1-.26.34.8.8,0,0,1-.46,0,2.24,2.24,0,0,1-.85-.48.9.9,0,0,0-.32-.23.51.51,0,0,0-.47.09,1,1,0,0,0-.31.32A2.13,2.13,0,0,1,271.82,125.31Z" transform="translate(0 -20.94)" fill="url(#linear-gradient-18)"></path><path d="M254.15,128.4l-1.62-4.23,15,13.57,8.53-10.91,9.1.93-12.91,22.78s-3.66,3.37-7.66,1.25-13.25-17.65-13.25-17.65Z" transform="translate(0 -20.94)" fill="#6bff81"></path><path d="M254.15,128.4l-1.31-3.86,14.7,13.2,8.53-10.91,9.1.93-12.91,22.78s-3.66,3.37-7.66,1.25-13.25-17.65-13.25-17.65Z" transform="translate(0 -20.94)" fill="url(#linear-gradient-19)"></path><path d="M239.79,104.37l-2.29,16.2,10.34-.83-.31-6.37S242.6,108.13,239.79,104.37Z" transform="translate(0 -20.94)" fill="url(#linear-gradient-20)"></path><path d="M88.06,290.26c-3.8,1.69-7.8,3.54-10.13,7-2.48,3.65-2.57,8.36-2.59,12.78,0,7.37.07,15.16,3.84,21.5,6.08,10.21,19.44,13.15,31.31,13.63,5,.2,10,.15,14.75,1.67,2.52.8,4.89,2,7.41,2.84,6.09,1.94,12.65,1.26,19,1.38,10.29.19,20.43,2.47,30.67,3.45s21,.54,30.13-4.31c2.69-1.44,5.22-3.25,8.13-4.17s6.3-.85,9.49-.79a296,296,0,0,0,112.48-20.1,8.89,8.89,0,0,0,3.14-1.75,9,9,0,0,0,2-3.75c2.93-8.63,5.5-19.24-.66-25.95-1.52-1.66-3.46-2.9-4.83-4.68a14.63,14.63,0,0,0-2.43-3c-1.64-1.25-3.91-1.11-6-.91a964.06,964.06,0,0,1-157.94,1.72,2.48,2.48,0,0,0-2,.41c-.49.48-.2,1.59.48,1.47-15,0-30-1.73-45-3.44l-8.39-1c-5.64-.64-11.45-1.28-17.09-.28S93.19,288,88.06,290.26Z" transform="translate(0 -20.94)" fill="url(#linear-gradient-21)"></path><path d="M90,296.53c9.92,3.37,19.94,6.77,30.36,7.78,2.26.23,4.53.33,6.81.44l8.41.4,20.15,1,36.45,1.73a3,3,0,0,0-4.36.23l58.94,1.4c8.22.2,16.49.39,24.63-.83,7.64-1.16,15.13-3.56,22.85-3.73,5-.11,9.91.7,14.86.47,7.8-.36,15.21-3.29,22.46-6.18l-4-4.54a42.69,42.69,0,0,0,12.76-.71c-3.11-5.28-10.43-5.77-16.56-5.63l-154,3.36c-17.78.39-35.79.75-53.11-3.32-4-.95-8.09-2.15-12.24-2.11C98.69,286.32,91.54,290.58,90,296.53Z" transform="translate(0 -20.94)" opacity="0.36" fill="url(#linear-gradient-22)"></path><path d="M180.21,302.38l72.5,30.83L320.42,296s-83.07.29-91.64,1.67S186,296,186,296l-14.07,2.48Z" transform="translate(0 -20.94)" fill="#f4e9a4"></path><path d="M180.21,297.94l72.5,30.82L320.42,296s-83.07.29-91.64,1.67S186,296,186,296l-14.07,2.48Z" transform="translate(0 -20.94)" fill="url(#linear-gradient-23)"></path><path d="M307.5,300.71c-5.52.79-11.14.2-16.71.32-6.25.12-36.07,2.22-42.28,2.88-30.14,3.21-36.93-3-67.24-2a7.5,7.5,0,0,1-3.13-.33c-2.6-1-3.13-4.83-1.6-7.18s4.37-3.49,7.12-4.06a54.32,54.32,0,0,1,10.59-.83q57.5-.75,115,1.72c2.44.1,10.62-.76,10,3.73C318.78,298.55,310.25,300.31,307.5,300.71Z" transform="translate(0 -20.94)" fill="url(#linear-gradient-24)"></path><path d="M73.65,274.9c-.27,3.65,2.17,7.1,5.34,8.94s6.92,2.33,10.58,2.47c4.59.17,10,.23,12.59,4,1.08,1.59,1.45,3.64,2.8,5,4.09,4.16,10.87-1.78,16.66-1.16,5.23.56,8.39,6.34,13.4,7.92,8.93,2.8,17.08-8.78,26.33-7.38,3.7.56,6.85,3.16,10.55,3.71,4.74.71,9.3-2.06,14.07-2.48,5.63-.5,11,2.25,16.5,3.39,8.66,1.79,20.69,1.83,29.43.53,30.26-4.48,58.13-.44,88.52-3.89,3.15-.36,6.41-.87,9.05-2.62,3.21-2.13,5.11-5.86,8.39-7.89,7.39-4.58,18.4,1.2,25.21-4.21a4.56,4.56,0,0,0,1.9-3c.46-4.26-7.31-5.35-7.58-9.63-.09-1.47.81-2.9.59-4.36-.3-2-2.45-3.05-4.34-3.73-21.62-7.78-45.14-7.84-68.12-7.81q-46.72,0-93.44.13l-47.42.07-23,0c-6.29,0-14.62-1.43-20.62.85-4.88,1.85-8.66,6.47-13.35,8.9C82.42,265.5,74.2,267.75,73.65,274.9Z" transform="translate(0 -20.94)" fill="#72d000"></path><path d="M78.68,271.59c-.28,3.65,2.17,7.1,5.33,8.94s6.93,2.33,10.59,2.47c4.58.16,10,.23,12.59,4,1.07,1.59,1.45,3.64,2.8,5,4.09,4.16,5.84,1.53,11.63,2.15,5.23.56,8.39,6.34,13.4,7.92,8.93,2.8,16.75-15,26-13.6,3.7.56,6.85,3.16,10.55,3.71,4.74.71,9.3-2.05,14.07-2.48,5.63-.5,11.3,8.47,16.83,9.61,8.66,1.79,20.69,1.83,29.43.53,30.26-4.48,51.28-4.93,81.68-8.38,3.15-.36,6.4-.87,9-2.62,3.21-2.13,5.12-5.86,8.39-7.89,7.39-4.58,25.25,5.69,32.06.28a4.56,4.56,0,0,0,1.9-3c.46-4.26-7.31-5.35-7.58-9.63-.09-1.47.81-2.9.59-4.36-.3-2-2.45-3.05-4.34-3.73-21.62-7.78-45.14-7.84-68.12-7.81q-46.72,0-93.44.13l-47.42.07-23,0c-6.29,0-14.62-1.43-20.62.85-4.88,1.85-8.66,6.47-13.35,8.9C82.42,265.5,79.22,264.44,78.68,271.59Z" transform="translate(0 -20.94)" fill="url(#linear-gradient-25)"></path><path d="M146.53,274.64c24.67,2.15,50.4-3.57,73.82,4.49,7.25,2.49,14.16,6.29,21.77,7.15,7.39.83,14.77-1.17,22.18-1.77,11-.91,22.05,1.28,33.1,1.57a10.41,10.41,0,0,0,4.71-.65,3.8,3.8,0,0,0,2.34-3.8c-.4-2.31-3.49-3.52-3.64-5.87-.12-1.92,1.88-3.32,3.76-3.73s3.91-.27,5.65-1.1,2.93-3.3,1.6-4.69a4.27,4.27,0,0,0-3.13-.92c-4.64-.07-9.27,0-13.9.05q-70.14.79-140.17-4c-5.28-.36-24.58-3.77-27.1,2.81C124.7,271.54,142.17,274.26,146.53,274.64Z" transform="translate(0 -20.94)" fill="url(#linear-gradient-26)"></path><path d="M98.9,308.35a5.85,5.85,0,0,0-.6,5.2c.51,1.35,1.54,2.55,1.59,4,.06,1.63-1.15,3-1.42,4.65a6.14,6.14,0,0,0,1.89,4.93c1.23,1.33,2.76,2.37,4,3.66a10.4,10.4,0,0,0,2.26,2,2.43,2.43,0,0,0,2.84-.17,3.2,3.2,0,0,0,.7-1.58,23.69,23.69,0,0,0,.52-6.23,8.75,8.75,0,0,0-.68-3.28c-.68-1.45-2-2.51-2.87-3.84s-1.32-3.26-.23-4.43c.85-.91,2.56-1.49,2.27-2.7-.17-.68-.93-1-1.48-1.43a3,3,0,0,1-.93-3.24A7.18,7.18,0,0,0,98.9,308.35Z" transform="translate(0 -20.94)" fill="url(#linear-gradient-27)"></path><path d="M138.88,332a4.53,4.53,0,0,0,1.8,1.31,1.59,1.59,0,0,0,1.93-.69c.64-1.5-3.21-6.19-3.63-8.08-.51-2.29.68-5.16-2.18-4.88-2.16.2-5.32,3.44-4.74,5.43S137.29,330.4,138.88,332Z" transform="translate(0 -20.94)" fill="url(#linear-gradient-28)"></path><path d="M321.06,317a3.29,3.29,0,0,0-.94,1.06,5.13,5.13,0,0,0-.27,1.61c-.29,2.36-2.19,4.14-4,5.71A29.14,29.14,0,0,0,327.53,324a5.33,5.33,0,0,0,2.15-1.15,15.21,15.21,0,0,0,1-1.37c1.95-2.46,5.69-2.34,8.45-3.83.15-.09.32-.2.36-.37a.67.67,0,0,0,0-.34C336.53,307.94,325.87,313.05,321.06,317Z" transform="translate(0 -20.94)" fill="url(#linear-gradient-29)"></path><path d="M206.9,336.14a6.47,6.47,0,0,0-7.58,4.93,31.93,31.93,0,0,0,11-2.59,6.58,6.58,0,0,0,3.35-2.56,12,12,0,0,0-7-.33" transform="translate(0 -20.94)" fill="url(#linear-gradient-30)"></path><path d="M180,328.12a11.66,11.66,0,0,0-5.28-.93,1.66,1.66,0,0,0-1.23.6,1.39,1.39,0,0,0-.17,1c.26,1.72,2.17,2.67,3.89,2.88s3.54,0,5.13.66c1,.43,2.25,1.2,3.12.5.45-.36.58-1,.87-1.47a2.32,2.32,0,0,1,.73-.59C184.73,329.9,182.4,329,180,328.12Z" transform="translate(0 -20.94)" fill="url(#linear-gradient-31)"></path><path d="M283.41,317.12a8.22,8.22,0,0,0-3.92,2c-1,1.11-1.21,3.07,0,4s2.86.37,4.22-.22l6.88-3a2.89,2.89,0,0,0,.95-.58,1.77,1.77,0,0,0,0-2.18,3.83,3.83,0,0,0-2-1.21,9.69,9.69,0,0,0-5.93.12" transform="translate(0 -20.94)" fill="url(#linear-gradient-32)"></path><path d="M346.2,248.81a8.3,8.3,0,0,1-5.27,7.79c-12.46,4.87-48.92,16-121.62,16-93,0-123.88-18.26-123.88-18.26-4.16-2.33-2.8-12.75-.55-22.2,2.07-8.7,4.91-16.59,4.91-16.59s39.43-51.45,131.71-42.38S340.11,216.26,345,223.39a12.29,12.29,0,0,1,1.48,5.28C347.2,235.19,346.18,244.86,346.2,248.81Z" transform="translate(0 -20.94)" fill="url(#linear-gradient-33)"></path><path d="M163.69,179.86c-1.2.57-2.59,1.43-2.55,2.76a.75.75,0,0,0,.21.54.89.89,0,0,0,.49.16c3.34.32,6.68-.4,10-.78a.56.56,0,0,1,.42.06c.16.14.12.4.16.6.14.63,1,.66,1.65.55,3.55-.64,7.2-1.32,10.26-3.24a12.3,12.3,0,0,1,2.25-1.3c1.52-.55,3.21-.22,4.82-.44a7.06,7.06,0,0,0,5-3.33,1.3,1.3,0,0,0,.23-1,1.05,1.05,0,0,0-.51-.59,5.34,5.34,0,0,0-3.22-.48c-6.6.41-20.93,2.67-21.22,3.12s-2.26.87-2.79,1.09C167.15,178.31,165.41,179.07,163.69,179.86Z" transform="translate(0 -20.94)" opacity="0.36" fill="url(#linear-gradient-34)"></path><path d="M202.89,179.11a42.48,42.48,0,0,0,12.79.3,4.14,4.14,0,0,1,2.54.32c1.18.74,1.26,2.38,1.51,3.75.87,4.64,5.13,8,9.65,9.37s9.33,1.13,14.05,1.16a121.64,121.64,0,0,1,24.51,2.65c14,3,28,8.46,42.19,6.28a2.84,2.84,0,0,0,1.32-.44c1-.81.52-2.46-.23-3.53-3.26-4.69-9-6.84-14.43-8.67-16.78-5.67-33.8-10.81-51.21-14.17a215.07,215.07,0,0,0-26.38-3.53c-7.42-.5-19.23-2.29-26.13.61C194.82,176.51,199.37,178.34,202.89,179.11Z" transform="translate(0 -20.94)" opacity="0.36" fill="url(#linear-gradient-35)"></path><ellipse cx="250.37" cy="182.44" rx="2.22" ry="4.34" transform="translate(20.02 368.65) rotate(-78.05)" fill="none" stroke="#000" stroke-miterlimit="10" stroke-width="0.5"></ellipse><ellipse cx="277.31" cy="188.15" rx="1.77" ry="3.47" transform="translate(35.8 399.53) rotate(-78.05)" fill="none" stroke="#000" stroke-miterlimit="10" stroke-width="0.4"></ellipse><ellipse cx="198.62" cy="157.66" rx="4.34" ry="2.22" fill="#fff"></ellipse><ellipse cx="219.74" cy="170.26" rx="4.34" ry="2.22" fill="#fff"></ellipse><ellipse cx="288.07" cy="178.12" rx="4.34" ry="2.22" fill="#fff"></ellipse><ellipse cx="191.46" cy="186.94" rx="3.55" ry="1.81" transform="translate(-31.41 17.9) rotate(-10.71)" fill="#fff"></ellipse><ellipse cx="170.53" cy="194.71" rx="3.55" ry="1.81" transform="translate(-33.22 14.15) rotate(-10.71)" fill="#fff"></ellipse><ellipse cx="177.41" cy="180" rx="4.34" ry="2.22" transform="translate(-43.1 35.57) rotate(-16.16)" fill="#fff"></ellipse><ellipse cx="259.72" cy="191.29" rx="1.63" ry="3.18" transform="translate(18.78 384.81) rotate(-78.05)" fill="#fff"></ellipse><ellipse cx="226.67" cy="179.31" rx="2.22" ry="4.34" transform="matrix(0.06, -1, 1, 0.06, 33.44, 373.3)" fill="#fff"></ellipse><ellipse cx="157.02" cy="186.94" rx="4.34" ry="2.22" transform="translate(-45.84 30.17) rotate(-16.16)" fill="#fff"></ellipse><rect x="215.19" y="81.75" width="11.48" height="70.09" fill="#6bff81"></rect><rect x="215.19" y="81.75" width="11.48" height="70.09" fill="url(#linear-gradient-36)"></rect><path d="M210.6,134.14" transform="translate(0 -20.94)" fill="none" stroke="#000" stroke-miterlimit="10" stroke-width="0.53"></path><path d="M306.13,182.44l-5.46,2.18-5.81,2.32-11.12-16.6s-5.94,6.65-29.13,13-27.94-10.56-27.94-10.56V126.4c3.94-10.19,14.86-8,21.5-5.58a9.26,9.26,0,0,1,6,7.58l3.7,30.38,26.45-4.48a12,12,0,0,1,13.08,7.2Z" transform="translate(0 -20.94)" fill="#25233a"></path><path d="M300.67,184.62l-5.81,2.32-11.12-16.6s-5.94,6.65-29.13,13-27.94-10.56-27.94-10.56V129.16c5-4.49,13-2.73,18.29-.78a9.28,9.28,0,0,1,6,7.58l3.7,30.38,26.45-4.48a12,12,0,0,1,13.08,7.21Z" transform="translate(0 -20.94)" fill="url(#linear-gradient-37)"></path><path d="M224.08,172.13s-.78,5.15,5.44,1.53,28.33-14.88,28.33-14.88l-3.7-30.38s-1.31-10.77-14.08-11c-14.34-.21-14.74,10.7-14.74,10.7S226.16,170.16,224.08,172.13Z" transform="translate(0 -20.94)" fill="#6bff81"></path><path d="M224.08,172.13s-.78,5.15,5.44,1.53,28.33-14.88,28.33-14.88l-3.7-30.38s-1.08-11-14.08-11c-14.34.07-14.74,10.7-14.74,10.7S226.16,170.16,224.08,172.13Z" transform="translate(0 -20.94)" fill="url(#linear-gradient-38)"></path><polygon points="242.31 100.38 245.98 102.5 246.23 101.41 247.53 103.44 246.23 125.22 252.53 129.77 249.18 101 245.38 99.29 242.31 100.38" fill="url(#linear-gradient-39)"></polygon><polygon points="245.55 99.83 246.91 100.38 246.91 99.06 245.85 98.54 245.55 99.83" fill="#25233a"></polygon><path d="M247.84,119.74s3.67,7.75,3.51,19.57a173.79,173.79,0,0,0,1.2,22.19l5.3-2.72-3.7-30.38s-1-5.06-4.26-7.83Z" transform="translate(0 -20.94)" fill="url(#linear-gradient-40)"></path><path d="M248.65,124s-.61,12.46,1.18,19.22,8,14.36,8,14.36l6.36.09v-2.91s-9.26-9-10.77-15.48c-1.55-6.62-3.43-16.25-3.43-16.25Z" transform="translate(0 -20.94)" fill="#25233a"></path><polygon points="246.33 96.44 247.84 98.8 245.73 99.06 246.33 96.44" fill="#6bff81"></polygon><path d="M233.86,118.63l-.18.07h0Z" transform="translate(0 -20.94)" fill="url(#linear-gradient-41)"></path><path d="M247.84,119.74l-1.29.16h0l-1.27,4.32-7.4-3.09c-1.36,2.22-1,3.3-1,3.3s.82,42-1.25,44a3.69,3.69,0,0,0,.19,1.76c-2.64,1.4-4.9,2.63-6.33,3.46-6.22,3.62-5.44-1.53-5.44-1.53,2.08-2,1.25-44,1.25-44s.29-6.54,8.35-9.43l.18-.07.44-.15a24.94,24.94,0,0,1,5.77-1l.86-.05a11.71,11.71,0,0,0-1.34,1.27l6.4.2.34-1.47Z" transform="translate(0 -20.94)" fill="url(#linear-gradient-42)"></path><path d="M227.79,131.32a7.23,7.23,0,0,0,1.34,5c4,5.71,15,20.74,20.19,20.74,6.37,0,8.24-.14,12.87-3.18s15.12-18.07,15.12-18.07l-4.71-5.35-17.78,13.3s-11.57-14-12.43-15c0,0-5-7.5-10.35-3.1C228.68,128.36,228,129.87,227.79,131.32Z" transform="translate(0 -20.94)" fill="#6bff81"></path><path d="M227.79,131.32a7.23,7.23,0,0,0,1.34,5c4,5.71,15,20.74,20.19,20.74,6.37,0,8.24-.14,12.87-3.18s15.12-18.07,15.12-18.07l-2.88-3.27-17.21,16.92c-5.92,4.86-12.43-2.38-16.59-8.82l-8.59-15C228.68,128.36,228,129.87,227.79,131.32Z" transform="translate(0 -20.94)" fill="url(#linear-gradient-43)"></path><path d="M254.63,160.43s38.79,17.12,52.37,27.72l-5,8.69S260.62,185,243.05,184.7s-16.38-9.83-16.38-9.83Z" transform="translate(0 -20.94)" fill="#25233a"></path><path d="M241.43,167.25s33.55,11.38,62.41,26.38L302,196.84S260.62,185,243.05,184.7s-16.38-9.83-16.38-9.83Z" transform="translate(0 -20.94)" fill="url(#linear-gradient-44)"></path><polygon points="306.13 168.71 312.21 171.27 309.17 176.77 302.92 174.28 306.13 168.71" fill="url(#linear-gradient-45)"></polygon><path d="M272.6,130.44s-.77-5.1,0-6.07,2.21,0,2.21,0l5.11-4.62s2.89-.2,2.8,1.15,1.35.87,2,2,1.74,2.79,1.74,2.79a10.08,10.08,0,0,1,0,2.41c-.2.39-1.74,2.41-1.84,2.7s-7.33,5-7.33,5Z" transform="translate(0 -20.94)" fill="url(#linear-gradient-46)"></path><path d="M256.26,107.55c-.37.45-1,.5-1.57.71-2,.78-1.36,2.94-2.69,4.59-3.32,4.13-9.8-4-10.69-6.12s-3.18-2.46-2.82-4.77a14.69,14.69,0,0,1,2.61-6.57,10.32,10.32,0,0,1,5.77-4,4.8,4.8,0,0,1,2.41-.05,5.12,5.12,0,0,1,1.5.74c2.21,1.5,6,2.54,6.43,5.26.19,1.33-1.63,4.27-1.48,5.6C255.86,104.11,257.07,106.56,256.26,107.55Z" transform="translate(0 -20.94)" fill="url(#linear-gradient-47)"></path><path d="M243.93,105a8.6,8.6,0,0,0-1.35-2.35,1.65,1.65,0,0,0-.85-.63,1.14,1.14,0,0,0-1.14.62,2.55,2.55,0,0,0-.21,1.37,6.09,6.09,0,0,0,.93,2.77,2.15,2.15,0,0,0-1.68,2.32c.05.39.11,1-.28,1a.66.66,0,0,1-.55-.28,5,5,0,0,1-1.1-1.9c-.36-1.18-.38-2.64-1.42-3.3l.21-8.22a10,10,0,0,1,.17-2,7.51,7.51,0,0,1,2.25-3.67,15.14,15.14,0,0,1,13.87-3.45,14.84,14.84,0,0,0,4.81.83,7.22,7.22,0,0,1,1.6-.11,2.86,2.86,0,0,1,.89.31,3.81,3.81,0,0,1,.67,6.23c-.4.35-.9.65-1.06,1.15-.09.3-.05.63-.16.92a1.59,1.59,0,0,1-.82.75,5.62,5.62,0,0,1-3.49.54,1.42,1.42,0,0,0-.79,0,1.7,1.7,0,0,0-.51.38c-1.14,1-2.9.59-4.28,0-.62-.28-1.36-.6-1.95-.27a6.81,6.81,0,0,0-.65.53c-.59.43-.89.26-1.3,1a7.41,7.41,0,0,0-.66,1.83c-.16.63-.28,1.27-.45,1.89A12.39,12.39,0,0,0,243.93,105Z" transform="translate(0 -20.94)" fill="#25233a"></path><path d="M304.43,183.13c-.22.08,1,3.81,1,3.81l-3.92-2.63Z" transform="translate(0 -20.94)" fill="url(#linear-gradient-48)"></path><rect x="215.19" y="81.75" width="11.48" height="6.96" fill="url(#linear-gradient-49)"></rect><path d="M346.2,248.81a8.3,8.3,0,0,1-5.27,7.79c-12.46,4.87-48.92,16-121.62,16-93,0-123.88-18.26-123.88-18.26-4.16-2.33-2.8-12.75-.55-22.2h0l2-7.54s61.45,18.83,155.65,13.92c81.13-4.23,92.38-8.71,93.94-9.87C347.2,235.19,346.18,244.86,346.2,248.81Z" transform="translate(0 -20.94)" fill="url(#linear-gradient-50)"></path><path d="M309.17,197.71v1.35l8.24,3,9.83-15.11a6.22,6.22,0,0,0-5.88-1.57c-3.85.77-9.15,6.85-9.15,6.85Z" transform="translate(0 -20.94)"></path><path d="M236.33,115.42l10,2-1.14,5-11.53-4.08.87-2A1.53,1.53,0,0,1,236.33,115.42Z" transform="translate(0 -20.94)" fill="#6bff81"></path><path d="M236.33,115.42l10,2-1.14,5-11.53-4.08.87-2A1.53,1.53,0,0,1,236.33,115.42Z" transform="translate(0 -20.94)" fill="url(#linear-gradient-51)"></path><polygon points="172.77 144.83 173.48 156.8 185.73 155.44 184.46 142.58 178.12 136.67 172.77 144.83" fill="#6bff81"></polygon><polygon points="189.95 134.7 178.12 136.67 184.46 142.58 185.73 155.44 196.28 154.01 195.58 140.56 189.95 134.7" fill="#6bff81"></polygon><polygon points="172.77 144.83 173.48 156.8 185.73 155.44 184.46 142.58 178.12 136.67 172.77 144.83" fill="url(#linear-gradient-52)"></polygon><polygon points="189.95 134.7 178.12 136.67 184.46 142.58 185.73 155.44 196.28 154.01 195.58 140.56 189.95 134.7" fill="url(#linear-gradient-53)"></polygon><g opacity="0.41"><path d="M199.58,35.89l-.72,13.58,2.75.15-.18,3.4-7.27-.39.9-17Z" transform="translate(0 -20.94)" fill="#fff"></path><path d="M217.59,36.84,217,48.19a18.77,18.77,0,0,1-.27,2.71,3.56,3.56,0,0,1-.85,1.56,3.85,3.85,0,0,1-1.74,1.16,6.3,6.3,0,0,1-2.46.3,7,7,0,0,1-2.72-.65,4.19,4.19,0,0,1-1.72-1.41,3.65,3.65,0,0,1-.61-1.74c0-.6,0-1.86.1-3.78l.53-10.05,4.52.24-.67,12.74a4.59,4.59,0,0,0,0,1.43.47.47,0,0,0,.48.33.52.52,0,0,0,.57-.31,6.66,6.66,0,0,0,.21-1.6l.66-12.52Z" transform="translate(0 -20.94)" fill="#fff"></path><path d="M233.31,37.68l-.9,17-4-.21-1.95-7.84-.41,7.72-3.78-.2.9-17,3.79.2,2.12,7.79.41-7.65Z" transform="translate(0 -20.94)" fill="#fff"></path><path d="M249.17,45.94l-4.52-.24.16-3a5.61,5.61,0,0,0-.06-1.62c-.09-.22-.3-.33-.63-.35a.68.68,0,0,0-.73.35,5.81,5.81,0,0,0-.23,1.67l-.42,7.89a5.13,5.13,0,0,0,.06,1.62.78.78,0,0,0,1.34.07,6,6,0,0,0,.25-1.77l.11-2.13,4.53.24,0,.66a12.76,12.76,0,0,1-.58,3.72,3.81,3.81,0,0,1-1.79,1.84,5.85,5.85,0,0,1-3.26.66,6.82,6.82,0,0,1-3.24-.87,3.49,3.49,0,0,1-1.61-2,12.65,12.65,0,0,1-.22-3.76l.27-5a20.6,20.6,0,0,1,.27-2.74,3.84,3.84,0,0,1,.87-1.73,4.23,4.23,0,0,1,1.84-1.24,7.42,7.42,0,0,1,5.89.58,3.67,3.67,0,0,1,1.61,2,11.28,11.28,0,0,1,.22,3.53Z" transform="translate(0 -20.94)" fill="#fff"></path><path d="M265.46,39.39l-.9,17L260,56.13l.38-7.13-1.36-.07-.37,7.13-4.53-.24.91-17,4.52.24-.33,6.07,1.36.07.32-6.07Z" transform="translate(0 -20.94)" fill="#fff"></path><path d="M193.69,61.43l4.51.24a12.17,12.17,0,0,1,3.22.49,3.28,3.28,0,0,1,1.71,1.41,5.77,5.77,0,0,1,.51,3.23,3.42,3.42,0,0,1-.59,2,3.32,3.32,0,0,1-1.93.8,3.35,3.35,0,0,1,2.06,1.27,4.27,4.27,0,0,1,.43,2.49L203.53,75a6.08,6.08,0,0,1-.54,2.53,2.2,2.2,0,0,1-1.35,1.07,13.83,13.83,0,0,1-3.62.11l-5.23-.28Zm4,9.56-.26,4.75a2,2,0,0,0,1.24-.22,2.1,2.1,0,0,0,.33-1.28l.09-1.58c0-.73,0-1.18-.17-1.34A2.2,2.2,0,0,0,197.72,71Zm.34-6.42-.2,3.78h.45a.93.93,0,0,0,.87-.27,5.26,5.26,0,0,0,.27-1.82,2.88,2.88,0,0,0-.09-1.13.68.68,0,0,0-.37-.42A3.63,3.63,0,0,0,198.06,64.57Z" transform="translate(0 -20.94)" fill="#fff"></path><path d="M209.72,62.28l3.2.17a25,25,0,0,1,4.32.47A3,3,0,0,1,219,64.25a5.48,5.48,0,0,1,.55,3.2,4.87,4.87,0,0,1-.65,2.64,2.68,2.68,0,0,1-2,.71,3.5,3.5,0,0,1,1.76,1,2.56,2.56,0,0,1,.52,1,15.7,15.7,0,0,1,0,2.52l-.24,4.48-4.2-.22.3-5.65a3.73,3.73,0,0,0-.13-1.7q-.19-.33-1.14-.39l-.4,7.66-4.52-.24Zm4.37,3.14-.2,3.78a1.93,1.93,0,0,0,1.07-.15c.22-.12.34-.56.38-1.31l0-.93a1.39,1.39,0,0,0-.24-1.08A1.77,1.77,0,0,0,214.09,65.42Z" transform="translate(0 -20.94)" fill="#fff"></path><path d="M225.44,63.11l7.54.4-.18,3.4-3-.16L229.62,70l2.82.15-.17,3.23-2.83-.15-.2,3.74,3.32.18-.18,3.39-7.84-.41Z" transform="translate(0 -20.94)" fill="#fff"></path><path d="M246.28,64.22,248,81.34l-4.63-.24L243.26,78l-1.61-.09-.44,3-4.68-.25,3.21-16.86ZM243.3,75c-.12-1.93-.23-4.32-.31-7.16-.63,3.22-1.05,5.58-1.24,7.08Z" transform="translate(0 -20.94)" fill="#fff"></path><path d="M264.29,65.18l-3,7.53,2.35,9.46L259,81.93l-1.45-7.38-.39,7.28-4.52-.24.9-17,4.53.24-.35,6.59L260.05,65Z" transform="translate(0 -20.94)" fill="#fff"></path></g><path d="M200.92,36l-.72,13.58,2.75.15-.18,3.4-7.28-.39.91-17Z" transform="translate(0 -20.94)" fill="url(#linear-gradient-54)"></path><path d="M218.92,36.91l-.6,11.35a20.37,20.37,0,0,1-.27,2.71,3.67,3.67,0,0,1-.85,1.56,3.85,3.85,0,0,1-1.74,1.16A6.3,6.3,0,0,1,213,54a7.12,7.12,0,0,1-2.73-.65,4.15,4.15,0,0,1-1.71-1.41,3.55,3.55,0,0,1-.61-1.74q-.06-.9.09-3.78l.54-10,4.52.24-.68,12.74a5.35,5.35,0,0,0,.05,1.43.48.48,0,0,0,.49.33.53.53,0,0,0,.57-.31,6.66,6.66,0,0,0,.21-1.6l.66-12.52Z" transform="translate(0 -20.94)" fill="url(#linear-gradient-55)"></path><path d="M234.65,37.75l-.9,17-4-.21-1.94-7.84-.41,7.72-3.78-.2.9-17,3.78.2,2.13,7.79.41-7.65Z" transform="translate(0 -20.94)" fill="url(#linear-gradient-56)"></path><path d="M250.51,46,246,45.77l.15-3a4.93,4.93,0,0,0-.06-1.62c-.08-.22-.29-.33-.62-.35a.68.68,0,0,0-.73.35,6.07,6.07,0,0,0-.24,1.67l-.42,7.89a5.35,5.35,0,0,0,.07,1.62.64.64,0,0,0,.66.42.65.65,0,0,0,.68-.35,6.32,6.32,0,0,0,.25-1.77l.11-2.13,4.52.24,0,.66a13.11,13.11,0,0,1-.58,3.72A3.85,3.85,0,0,1,248,55a5.85,5.85,0,0,1-3.26.66,6.82,6.82,0,0,1-3.24-.87,3.49,3.49,0,0,1-1.61-2,12.65,12.65,0,0,1-.22-3.76l.26-5a22,22,0,0,1,.28-2.75,3.92,3.92,0,0,1,.86-1.73,4.26,4.26,0,0,1,1.85-1.24,7.42,7.42,0,0,1,5.89.58,3.65,3.65,0,0,1,1.6,2,11,11,0,0,1,.23,3.53Z" transform="translate(0 -20.94)" fill="url(#linear-gradient-57)"></path><path d="M266.8,39.46l-.9,17-4.52-.24.38-7.13L260.4,49,260,56.13l-4.52-.24.9-17,4.53.24-.33,6.07,1.36.07.32-6.07Z" transform="translate(0 -20.94)" fill="url(#linear-gradient-58)"></path><path d="M195,61.5l4.51.24a12.25,12.25,0,0,1,3.22.49,3.28,3.28,0,0,1,1.71,1.41,5.87,5.87,0,0,1,.5,3.23,2.42,2.42,0,0,1-2.52,2.85A3.35,3.35,0,0,1,204.52,71a4.35,4.35,0,0,1,.43,2.49l-.09,1.57a6.08,6.08,0,0,1-.54,2.53A2.15,2.15,0,0,1,203,78.65a13.89,13.89,0,0,1-3.62.11l-5.24-.28Zm4,9.56-.25,4.75a2,2,0,0,0,1.24-.22,2.1,2.1,0,0,0,.33-1.28l.08-1.58c0-.73,0-1.18-.16-1.34A2.22,2.22,0,0,0,199.05,71.06Zm.35-6.42-.21,3.78h.46c.44,0,.73-.07.86-.27a4.93,4.93,0,0,0,.28-1.82,2.88,2.88,0,0,0-.09-1.13.68.68,0,0,0-.37-.42A3.63,3.63,0,0,0,199.4,64.64Z" transform="translate(0 -20.94)" fill="url(#linear-gradient-59)"></path><path d="M211.05,62.35l3.21.17a25,25,0,0,1,4.32.47,3,3,0,0,1,1.78,1.33,5.49,5.49,0,0,1,.54,3.2,4.8,4.8,0,0,1-.64,2.64,2.68,2.68,0,0,1-2,.71,3.5,3.5,0,0,1,1.76,1,2.69,2.69,0,0,1,.52,1,15.7,15.7,0,0,1,0,2.52l-.24,4.48-4.2-.22.3-5.65a3.73,3.73,0,0,0-.13-1.7c-.14-.22-.51-.35-1.14-.39l-.4,7.66-4.53-.24Zm4.37,3.14-.2,3.78a2,2,0,0,0,1.08-.15c.21-.12.34-.56.38-1.31l0-.93a1.39,1.39,0,0,0-.24-1.08A1.78,1.78,0,0,0,215.42,65.49Z" transform="translate(0 -20.94)" fill="url(#linear-gradient-60)"></path><path d="M226.78,63.18l7.54.4-.18,3.4-3-.16L231,70l2.83.15-.17,3.23-2.83-.15-.2,3.74,3.32.18-.18,3.39-7.84-.41Z" transform="translate(0 -20.94)" fill="url(#linear-gradient-61)"></path><path d="M247.62,64.29l1.68,17.12-4.62-.24-.08-3.07L243,78l-.43,3-4.68-.25,3.21-16.86Zm-3,10.79q-.19-2.89-.31-7.16-.95,4.83-1.25,7.08Z" transform="translate(0 -20.94)" fill="url(#linear-gradient-62)"></path><path d="M265.63,65.25l-3,7.53L265,82.24,260.3,82l-1.44-7.38-.39,7.28L254,81.66l.9-17,4.52.24L259,71.51,261.39,65Z" transform="translate(0 -20.94)" fill="url(#linear-gradient-63)"></path><path d="M246.59,121.19l1.85,2.54a.79.79,0,0,0,.58.33l.39,0a.8.8,0,0,0,.86-.9l-.33-2.69a.8.8,0,0,0-.85-.71l-1.9.12A.81.81,0,0,0,246.59,121.19Z" transform="translate(0 -20.94)" fill="#25233a"></path><polygon points="245.73 99.06 247.84 98.8 246.33 96.44 245.73 99.06" fill="url(#linear-gradient-64)"></polygon><path d="M243.09,105.45a1.18,1.18,0,0,1-.56-1.46c.34-1-1.22-1.1-1.22-.39s.74,2.79,1.36,2.55S243.09,105.45,243.09,105.45Z" transform="translate(0 -20.94)" fill="url(#linear-gradient-65)"></path></svg>