<?xml version="1.0" encoding="iso-8859-1"?>
<!-- Generator: Adobe Illustrator 19.0.0, SVG Export Plug-In . SVG Version: 6.00 Build 0)  -->
<svg version="1.1" id="Layer_1" xmlns="http://www.w3.org/2000/svg" xmlns:xlink="http://www.w3.org/1999/xlink" x="0px" y="0px"
	 viewBox="0 0 300.307 300.307" style="enable-background:new 0 0 300.307 300.307;" xml:space="preserve">
<g>
	<g>
		<g>
			<path d="M86.454,272.931h127.4c27.917,0,51.361-19.446,57.542-45.5H28.912C35.093,253.485,58.538,272.931,86.454,272.931z"/>
			<path d="M299.602,123.035c-2.383-7.153-10.113-11.016-17.265-8.633c-3.2,1.067-6.068,2.023-9.54,2.714
				c-1.775-24.079-14.806-46.296-37.154-63.06c-22.938-17.204-53.26-26.679-85.379-26.679c-32.129,0-62.485,9.471-85.476,26.669
				c-22.422,16.773-35.493,38.993-37.274,63.072c-3.473-0.693-6.343-1.648-9.544-2.715c-7.151-2.383-14.882,1.482-17.266,8.633
				c-2.383,7.151,1.482,14.882,8.633,17.266c4.909,1.636,10.266,3.412,17.959,4.423l13.659,0.827
				c11.433,0,16.529-1.699,22.981-3.849c7.383-2.461,15.752-5.251,31.617-5.251h0.001h0.001c15.864,0,24.232,2.789,31.614,5.251
				c6.453,2.15,11.549,3.849,22.986,3.849c11.432,0,16.528-1.699,22.979-3.849c7.384-2.461,15.753-5.251,31.619-5.251h0.001h0.001
				c15.866,0,24.234,2.789,31.617,5.251c6.453,2.15,11.549,3.849,22.983,3.849l13.655-0.826c7.694-1.011,13.052-2.787,17.96-4.424
				C298.122,137.917,301.988,130.187,299.602,123.035z"/>
			<path d="M277.976,172.852h-18.62c-15.864,0-24.232-2.789-31.615-5.251c-6.453-2.15-11.549-3.849-22.985-3.849h-0.001h-0.001
				c-11.436,0-16.533,1.699-22.986,3.849c-7.382,2.462-15.75,5.251-31.612,5.251c-15.867,0-24.235-2.789-31.618-5.251
				c-6.453-2.15-11.549-3.849-22.983-3.849c-11.435,0-16.532,1.699-22.985,3.849c-7.383,2.462-15.751,5.251-31.614,5.251H22.332
				c-7.341,0.226-13.228,6.234-13.228,13.629c0,7.538,6.112,13.65,13.65,13.65h4.55h245.7h4.55c7.538,0,13.65-6.112,13.65-13.65
				C291.204,179.085,285.317,173.077,277.976,172.852z"/>
		</g>
	</g>
</g>
<g>
</g>
<g>
</g>
<g>
</g>
<g>
</g>
<g>
</g>
<g>
</g>
<g>
</g>
<g>
</g>
<g>
</g>
<g>
</g>
<g>
</g>
<g>
</g>
<g>
</g>
<g>
</g>
<g>
</g>
</svg>
